<?xml version="1.0" encoding="utf-8"?>
<!-- Generator: Adobe Illustrator 22.0.2, SVG Export Plug-In . SVG Version: 6.00 Build 0)  -->
<svg version="1.1" id="图层_1" xmlns="http://www.w3.org/2000/svg" xmlns:xlink="http://www.w3.org/1999/xlink" x="0px" y="0px"
	 viewBox="0 0 850.4 212.6" style="enable-background:new 0 0 850.4 212.6;" xml:space="preserve">
<style type="text/css">
	.st0{fill:#051946;}
	.st1{fill:#DED18E;}
</style>
<g>
	<g>
		<path class="st0" d="M337.1,149.6h-79.5v-29c0-1.5,0.2-3.1,0.5-4.7c0.3-1.7,0.9-3.3,1.6-5c0.7-1.7,1.7-3.2,2.8-4.7
			c1.1-1.5,2.5-2.8,4.2-4s3.5-2.1,5.6-2.7c2.1-0.7,4.5-1,7.2-1h35.4c2.1,0,3.7-0.5,4.7-1.6c1-1.1,1.5-2.6,1.5-4.7v-6.9
			c0-2.1-0.5-3.7-1.6-4.8c-1-1.1-2.6-1.6-4.6-1.6h-50.4V63h50.4c2.7,0,5.1,0.3,7.2,1c2.1,0.7,4,1.6,5.6,2.7c1.6,1.1,3,2.5,4.2,4
			c1.2,1.5,2.1,3,2.9,4.7c0.7,1.6,1.3,3.3,1.6,5c0.3,1.7,0.5,3.2,0.5,4.7v7.1c0,4.1-0.7,7.5-2.2,10.3c-1.5,2.8-3.3,5.1-5.5,6.8
			c-2.2,1.7-4.6,3-7.2,3.8c-2.6,0.8-4.9,1.2-7.2,1.2h-35.5c-1.3,0-2.3,0.2-3.1,0.5c-0.8,0.4-1.4,0.8-1.8,1.5
			c-0.4,0.6-0.7,1.3-0.9,2.1c-0.2,0.8-0.4,1.5-0.5,2.3v13.3h63.8V149.6z"/>
		<path class="st0" d="M439.6,78.7H405v70.9h-15.7V78.7h-34.7V63h84.9V78.7z"/>
		<path class="st0" d="M538.3,92.1c0,3.6-0.4,6.8-1.3,9.6c-0.9,2.8-2.1,5.3-3.6,7.5c-1.5,2.2-3.3,4-5.2,5.5c-2,1.5-4,2.8-6.2,3.8
			c-2.2,1-4.3,1.7-6.5,2.1c-2.2,0.4-4.3,0.7-6.2,0.7l32.8,28.3h-24.3l-32.7-28.3h-11.3v-15.7h35.5c2-0.2,3.8-0.6,5.4-1.2
			c1.6-0.7,3-1.6,4.2-2.7c1.2-1.1,2.1-2.5,2.7-4.1c0.6-1.6,1-3.4,1-5.5v-9.9c0-0.9-0.1-1.6-0.3-2c-0.2-0.5-0.5-0.8-0.8-1
			c-0.3-0.2-0.7-0.4-1.1-0.4c-0.4,0-0.7-0.1-1.1-0.1h-51.8v70.9h-15.7V70.9c0-1.1,0.2-2.1,0.6-3.1c0.4-1,1-1.8,1.7-2.5
			c0.7-0.7,1.5-1.3,2.5-1.7c1-0.4,2-0.6,3.1-0.6h59.6c3.5,0,6.5,0.6,8.9,1.9c2.4,1.3,4.4,2.9,5.9,4.8c1.5,1.9,2.6,4,3.3,6.2
			c0.7,2.2,1,4.3,1,6.2V92.1z"/>
		<path class="st0" d="M640,149.6h-15.7v-21.3h-55.2v21.3h-15.7v-43.3c0-6.3,1.1-12.1,3.3-17.4c2.2-5.3,5.2-9.9,9.1-13.7
			c3.9-3.8,8.4-6.8,13.7-8.9c5.3-2.1,11-3.2,17.3-3.2h35.4c1.1,0,2.1,0.2,3.1,0.6c1,0.4,1.8,1,2.5,1.7c0.7,0.7,1.3,1.6,1.7,2.5
			c0.4,1,0.6,2,0.6,3.1V149.6z M569.1,112.6h55.2V78.7h-27.6c-0.5,0-1.5,0.1-3,0.2c-1.5,0.1-3.3,0.5-5.4,1.1c-2,0.6-4.2,1.4-6.4,2.6
			c-2.3,1.2-4.3,2.8-6.2,4.8c-1.9,2.1-3.5,4.6-4.7,7.7c-1.2,3.1-1.8,6.8-1.8,11.2V112.6z"/>
		<path class="st0" d="M739.8,113.4c0,5.3-0.9,10.1-2.7,14.5c-1.8,4.4-4.4,8.2-7.6,11.4c-3.2,3.2-7,5.7-11.5,7.5s-9.2,2.7-14.4,2.7
			h-42.4c-1.1,0-2.2-0.2-3.1-0.6c-1-0.4-1.8-1-2.5-1.7c-0.7-0.7-1.3-1.5-1.7-2.5c-0.4-1-0.6-2-0.6-3.1V70.9c0-1.1,0.2-2.1,0.6-3.1
			c0.4-1,1-1.8,1.7-2.5c0.7-0.7,1.5-1.3,2.5-1.7c1-0.4,2-0.6,3.1-0.6h42.4c5.2,0,10,0.9,14.4,2.7c4.4,1.8,8.3,4.3,11.5,7.5
			c3.2,3.2,5.7,7,7.6,11.5c1.8,4.4,2.7,9.3,2.7,14.5V113.4z M724.1,99.2c0-3.1-0.5-5.9-1.5-8.4c-1-2.5-2.4-4.7-4.2-6.5
			c-1.8-1.8-4-3.2-6.5-4.2c-2.5-1-5.3-1.5-8.4-1.5H669v55.2h34.6c3.1,0,5.8-0.5,8.4-1.5c2.5-1,4.7-2.4,6.5-4.2
			c1.8-1.8,3.2-3.9,4.2-6.5c1-2.5,1.5-5.3,1.5-8.4V99.2z"/>
		<path class="st0" d="M835.6,149.6H779c-2.2,0-4.5-0.4-7.1-1.1c-2.6-0.8-5-2-7.2-3.8c-2.2-1.8-4-4-5.5-6.8
			c-1.5-2.8-2.2-6.2-2.2-10.3V70.9c0-1.1,0.2-2.1,0.6-3.1c0.4-1,1-1.8,1.7-2.5c0.7-0.7,1.5-1.3,2.5-1.7c1-0.4,2-0.6,3.1-0.6h70.7
			v15.7h-62.9v48.8c0,2.1,0.5,3.6,1.6,4.7c1.1,1.1,2.7,1.6,4.8,1.6h56.5V149.6z M828.5,114.2H779V98.4h49.6V114.2z"/>
	</g>
	<g>
		<circle class="st0" cx="112" cy="106.3" r="97.2"/>
		<g>
			<path class="st1" d="M106.8,113.1c0,4.3-0.7,8.3-2.2,12c-1.5,3.6-3.6,6.8-6.2,9.4c-2.6,2.6-5.8,4.7-9.4,6.2
				c-3.6,1.5-7.6,2.2-11.8,2.2H59.7c-4.3,0-8.2-0.7-11.9-2.2c-3.6-1.5-6.8-3.5-9.4-6.2c-2.6-2.6-4.7-5.8-6.2-9.4
				c-1.5-3.6-2.3-7.6-2.3-12V99.5c0-4.3,0.8-8.3,2.3-11.9c1.5-3.7,3.6-6.8,6.2-9.4c2.6-2.6,5.8-4.7,9.4-6.2
				c3.6-1.5,7.6-2.2,11.9-2.2h17.5c4.3,0,8.2,0.7,11.8,2.2c3.6,1.5,6.8,3.5,9.4,6.2c2.6,2.6,4.7,5.8,6.2,9.4
				c1.5,3.7,2.2,7.6,2.2,11.9V113.1z M93.9,99.5c0-2.5-0.4-4.9-1.2-6.9c-0.8-2.1-2-3.8-3.4-5.3c-1.5-1.5-3.2-2.6-5.3-3.4
				c-2.1-0.8-4.3-1.2-6.8-1.2H59.7c-2.5,0-4.8,0.4-6.9,1.2c-2.1,0.8-3.8,2-5.3,3.4c-1.5,1.5-2.6,3.2-3.4,5.3
				c-0.8,2.1-1.2,4.4-1.2,6.9v13.6c0,2.5,0.4,4.9,1.2,6.9c0.8,2.1,2,3.8,3.4,5.3c1.5,1.5,3.3,2.6,5.3,3.4c2.1,0.8,4.4,1.2,6.9,1.2
				H77c2.5,0,4.8-0.4,6.9-1.2c2.1-0.8,3.8-2,5.3-3.4c1.5-1.5,2.6-3.2,3.4-5.3c0.8-2.1,1.2-4.4,1.2-6.9V99.5z"/>
			<path class="st1" d="M132.6,141.9h-12.9V70.7h12.9V141.9z M194.1,141.9h-18.3l-29-29.1h-9.1v-13h9.1l29-29.1h18.3l-36.6,35.6
				L194.1,141.9z"/>
		</g>
	</g>
</g>
</svg>
