<?xml version="1.0" encoding="utf-8"?>
<!-- Generator: Adobe Illustrator 22.0.2, SVG Export Plug-In . SVG Version: 6.00 Build 0)  -->
<svg version="1.1" id="图层_1" xmlns="http://www.w3.org/2000/svg" xmlns:xlink="http://www.w3.org/1999/xlink" x="0px" y="0px"
	 viewBox="0 0 212.6 212.6" style="enable-background:new 0 0 212.6 212.6;" xml:space="preserve">
<style type="text/css">
	.st0{fill:#051946;}
	.st1{fill:#DED18E;}
</style>
<g>
	<circle class="st0" cx="107.1" cy="106.7" r="105"/>
	<g>
		<path class="st1" d="M101.4,114c0,4.7-0.8,9-2.4,12.9c-1.6,3.9-3.8,7.3-6.7,10.2c-2.9,2.9-6.2,5.1-10.2,6.7s-8.2,2.4-12.8,2.4
			H50.5c-4.6,0-8.9-0.8-12.8-2.4c-3.9-1.6-7.3-3.8-10.2-6.7c-2.9-2.9-5.1-6.3-6.7-10.2c-1.6-3.9-2.4-8.2-2.4-12.9V99.4
			c0-4.6,0.8-8.9,2.4-12.9c1.6-3.9,3.9-7.3,6.7-10.2c2.9-2.8,6.3-5.1,10.2-6.7c3.9-1.6,8.2-2.4,12.8-2.4h18.9
			c4.6,0,8.9,0.8,12.8,2.4s7.3,3.8,10.2,6.7c2.9,2.8,5.1,6.2,6.7,10.2c1.6,3.9,2.4,8.2,2.4,12.9V114z M87.5,99.4
			c0-2.8-0.4-5.2-1.3-7.5c-0.9-2.2-2.1-4.1-3.7-5.7c-1.6-1.6-3.5-2.8-5.7-3.7c-2.2-0.9-4.7-1.3-7.4-1.3H50.5c-2.7,0-5.2,0.4-7.4,1.3
			c-2.2,0.9-4.2,2.1-5.8,3.7s-2.8,3.5-3.7,5.7c-0.9,2.2-1.3,4.7-1.3,7.5V114c0,2.8,0.4,5.2,1.3,7.5c0.9,2.2,2.1,4.1,3.7,5.7
			c1.6,1.6,3.5,2.8,5.8,3.7c2.2,0.9,4.7,1.3,7.4,1.3h18.8c2.7,0,5.2-0.4,7.4-1.3c2.2-0.9,4.2-2.1,5.8-3.7c1.6-1.6,2.8-3.5,3.7-5.7
			c0.9-2.2,1.3-4.7,1.3-7.5V99.4z"/>
		<path class="st1" d="M129.2,145.1h-13.9V68.3h13.9V145.1z M195.7,145.1H176l-31.3-31.4h-9.8v-14h9.8L176,68.3h19.8l-39.5,38.4
			L195.7,145.1z"/>
	</g>
</g>
</svg>
